<svg width="40" height="23" viewBox="0 0 40 23" fill="none" xmlns="http://www.w3.org/2000/svg">
<path d="M8.88889 0H4.44444C3.2657 0 2.13524 0.468252 1.30175 1.30175C0.468252 2.13524 0 3.2657 0 4.44444V22.2222H4.44444V13.3333H8.88889V22.2222H13.3333V4.44444C13.3333 3.2657 12.8651 2.13524 12.0316 1.30175C11.1981 0.468252 10.0676 0 8.88889 0ZM8.88889 8.88889H4.44444V4.44444H8.88889M24.4444 0H15.5556V22.2222H20V13.3333H24.4444C25.6232 13.3333 26.7536 12.8651 27.5871 12.0316C28.4206 11.1981 28.8889 10.0676 28.8889 8.88889V4.44444C28.8889 3.2657 28.4206 2.13524 27.5871 1.30175C26.7536 0.468252 25.6232 0 24.4444 0ZM24.4444 8.88889H20V4.44444H24.4444M37.7778 4.44444V17.7778H40V22.2222H31.1111V17.7778H33.3333V4.44444H31.1111V0H40V4.44444H37.7778Z" fill="#3EBBB7"/>
</svg>
