<svg width="50" height="35" viewBox="0 0 50 35" fill="none" xmlns="http://www.w3.org/2000/svg">
<path d="M40.0518 7.58455C41.9517 9.06556 42.9989 10.6812 43.2532 12.5661C45.2428 12.1921 47.8308 12.4614 48.9528 13.2094L50 13.9125L49.8205 14.2865C49.5063 14.9447 49.3866 15.1691 49.3418 15.2439C47.4868 18.7893 43.8815 18.8043 42.206 18.7744C37.9425 29.0666 28.847 34.7214 16.5502 34.7214C10.8655 34.7214 6.52722 32.9711 3.62504 29.5453C-0.189672 25.0275 -0.189672 19.1633 0.124481 17.2784L0.18432 16.8895H34.1428C35.923 16.9194 37.2544 16.4108 37.9275 16.0517C37.2544 15.0195 37.0449 13.8377 36.9701 13.1795C36.8205 11.3095 37.2992 9.34979 38.2267 7.94358L38.9598 6.85152L40.0518 7.58455Z" fill="#3EBBB7"/>
<path d="M22.19 0H27.3511V4.69733H22.19V0Z" fill="#3EBBB7"/>
<path d="M22.19 5.63979H27.3511V10.3222H22.19V5.63979Z" fill="#3EBBB7"/>
<path d="M16.0864 5.63979H21.2475V10.3222H16.0864V5.63979Z" fill="#3EBBB7"/>
<path d="M9.9829 5.63979H15.144V10.3222H9.9829V5.63979Z" fill="#3EBBB7"/>
<path d="M3.87936 11.2646H9.04044V15.962H3.87936V11.2646Z" fill="#3EBBB7"/>
<path d="M9.9829 11.2646H15.144V15.962H9.9829V11.2646Z" fill="#3EBBB7"/>
<path d="M16.0864 11.2646H21.2475V15.962H16.0864V11.2646Z" fill="#3EBBB7"/>
<path d="M22.19 11.2646H27.3511V15.962H22.19V11.2646Z" fill="#3EBBB7"/>
<path d="M28.2935 11.2646H33.4546V15.962H28.2935V11.2646Z" fill="#3EBBB7"/>
</svg>
