<svg width="50" height="50" viewBox="0 0 50 50" fill="none" xmlns="http://www.w3.org/2000/svg">
<path d="M13.9004 20.2334C14.6641 19.3925 15.6887 18.972 16.9744 18.972C17.883 18.972 18.6274 19.175 19.2073 19.581C19.7873 19.9773 20.2175 20.5379 20.4978 21.2629C20.7878 21.9783 20.9377 22.8096 20.9473 23.7569H12.5375C12.6825 22.2489 13.1368 21.0744 13.9004 20.2334Z" fill="#3EBBB7"/>
<path fill-rule="evenodd" clip-rule="evenodd" d="M25 50C38.8071 50 50 38.8071 50 25C50 11.1929 38.8071 0 25 0C11.1929 0 0 11.1929 0 25C0 38.8071 11.1929 50 25 50ZM20.4833 17.899C19.5167 17.2997 18.3567 17 17.0034 17C15.5824 17 14.3451 17.3383 13.2914 18.015C12.2475 18.6916 11.4355 19.6583 10.8555 20.9149C10.2852 22.1619 10 23.6409 10 25.3519C10 27.1015 10.3142 28.5805 10.9425 29.7888C11.5708 30.9971 12.4505 31.9154 13.5814 32.5437C14.7221 33.1624 16.0561 33.4717 17.5834 33.4717C18.6564 33.4717 19.5843 33.3896 20.3673 33.2252C21.16 33.0609 21.9575 32.7999 22.7598 32.4422V30.3253C21.9285 30.6829 21.1261 30.9536 20.3528 31.1373C19.5795 31.3209 18.6902 31.4128 17.6849 31.4128C16.0512 31.4128 14.7849 30.9246 13.8859 29.9483C12.9869 28.972 12.523 27.551 12.494 25.6854H23.4703V24.1919C23.4703 22.7516 23.2141 21.4949 22.7018 20.4219C22.1895 19.3393 21.45 18.4983 20.4833 17.899ZM25.8482 17.29L31.3436 25.0474L25.5872 33.1817H28.3132L32.7936 26.7003L37.245 33.1817H40L34.2001 25.0474L39.6955 17.29H36.9696L32.7936 23.4089L28.6032 17.29H25.8482Z" fill="#3EBBB7"/>
</svg>
