<svg width="40" height="40" viewBox="0 0 40 40" fill="none" xmlns="http://www.w3.org/2000/svg">
<path d="M1.18589 17.1779L12.7546 5.58919L16.1371 8.99174C15.6567 10.693 16.4373 12.5544 17.9985 13.4551V24.5434C16.7976 25.2239 15.997 26.5249 15.997 28.006C15.997 29.0677 16.4187 30.0858 17.1695 30.8366C17.9202 31.5873 18.9383 32.009 20 32.009C21.0617 32.009 22.0798 31.5873 22.8305 30.8366C23.5813 30.0858 24.003 29.0677 24.003 28.006C24.003 26.5249 23.2024 25.2239 22.0015 24.5434V14.8161L26.1446 18.9992C26.0045 19.2995 26.0045 19.6397 26.0045 20C26.0045 21.0617 26.4262 22.0798 27.177 22.8305C27.9277 23.5813 28.9458 24.003 30.0075 24.003C31.0692 24.003 32.0873 23.5813 32.8381 22.8305C33.5888 22.0798 34.0105 21.0617 34.0105 20C34.0105 18.9383 33.5888 17.9202 32.8381 17.1695C32.0873 16.4187 31.0692 15.997 30.0075 15.997C29.6472 15.997 29.307 15.997 29.0068 16.1371L23.8629 10.9932C24.3833 9.13185 23.4226 7.09032 21.5612 6.30973C20.7005 5.98949 19.7999 5.90943 18.9992 6.1296L15.5967 2.74706L17.1779 1.18589C18.7391 -0.395296 21.2609 -0.395296 22.8221 1.18589L38.8141 17.1779C40.3953 18.7391 40.3953 21.2609 38.8141 22.8221L22.8221 38.8141C21.2609 40.3953 18.7391 40.3953 17.1779 38.8141L1.18589 22.8221C-0.395296 21.2609 -0.395296 18.7391 1.18589 17.1779Z" fill="#3EBBB7"/>
</svg>
