<svg width="44" height="43" viewBox="0 0 44 43" fill="none" xmlns="http://www.w3.org/2000/svg">
<path d="M22 0C19.1109 0 16.2501 0.569047 13.581 1.67465C10.9118 2.78025 8.48654 4.40076 6.44365 6.44365C2.31785 10.5695 0 16.1652 0 22C0 31.724 6.314 39.974 15.048 42.9C16.148 43.076 16.5 42.394 16.5 41.8C16.5 41.294 16.5 39.908 16.5 38.082C10.406 39.402 9.108 35.134 9.108 35.134C8.096 32.582 6.666 31.9 6.666 31.9C4.664 30.536 6.82 30.58 6.82 30.58C9.02 30.734 10.186 32.846 10.186 32.846C12.1 36.19 15.334 35.2 16.588 34.672C16.786 33.242 17.358 32.274 17.974 31.724C13.09 31.174 7.964 29.282 7.964 20.9C7.964 18.458 8.8 16.5 10.23 14.938C10.01 14.388 9.24 12.1 10.45 9.13C10.45 9.13 12.298 8.536 16.5 11.374C18.238 10.89 20.13 10.648 22 10.648C23.87 10.648 25.762 10.89 27.5 11.374C31.702 8.536 33.55 9.13 33.55 9.13C34.76 12.1 33.99 14.388 33.77 14.938C35.2 16.5 36.036 18.458 36.036 20.9C36.036 29.304 30.888 31.152 25.982 31.702C26.774 32.384 27.5 33.726 27.5 35.772C27.5 38.72 27.5 41.096 27.5 41.8C27.5 42.394 27.852 43.098 28.974 42.9C37.708 39.952 44 31.724 44 22C44 19.1109 43.431 16.2501 42.3254 13.581C41.2197 10.9118 39.5992 8.48654 37.5564 6.44365C35.5135 4.40076 33.0882 2.78025 30.419 1.67465C27.7499 0.569047 24.8891 0 22 0Z" fill="#3EBBB7"/>
</svg>
