<svg width="36" height="40" viewBox="0 0 36 40" fill="none" xmlns="http://www.w3.org/2000/svg">
<path d="M31.7641 31.8061C33.331 30.8984 34.4025 29.3831 34.7037 27.6481C34.9318 26.3344 34.7181 25.0157 34.1455 23.8436C33.3207 24.4182 32.3196 24.7564 31.2403 24.7564C28.659 24.7564 26.5212 22.8266 26.1908 20.334C25.1281 20.2954 24.0059 20.2957 22.9493 20.3343C22.6185 22.8266 20.4811 24.7563 17.8998 24.7563C17.6446 24.7563 17.3897 24.7371 17.1374 24.6991C16.3073 26.0091 15.2973 27.2351 14.1228 28.3433C12.3056 30.0579 10.2568 31.3283 8.03349 32.1202L7.62601 32.2653L7.24098 32.0675C4.42869 30.6228 3.08871 27.5653 3.94077 24.7533C3.48923 24.7029 3.04654 24.5918 2.62465 24.4232C2.48436 24.7165 2.34292 25.0092 2.20034 25.3014L2.19974 25.3026C1.36299 27.0215 0.497703 28.799 0.177595 30.7289C-0.167842 32.8125 -0.304707 36.6148 2.6605 38.6698C6.70848 41.4754 11.0015 39.3432 15.9726 36.874C18.4565 35.6402 21.0251 34.3643 23.677 33.7104C24.6799 33.4631 25.7066 33.3149 26.6994 33.1718C28.5529 32.9046 30.3033 32.6521 31.7641 31.8061Z" fill="#3EBBB7"/>
<path d="M7.60403 19.6905C7.60403 17.9839 6.21573 16.5955 4.50912 16.5955C2.80251 16.5955 1.41406 17.9839 1.41406 19.6905C1.41366 20.2278 1.55404 20.7558 1.82123 21.2219C2.18105 21.8511 2.74917 22.335 3.42761 22.5901C3.76447 22.7161 4.12877 22.7854 4.50912 22.7854C4.58052 22.7854 4.65144 22.782 4.72175 22.7773C5.72642 22.7088 6.60092 22.1588 7.11533 21.3565C7.43484 20.8596 7.6045 20.2813 7.60403 19.6905Z" fill="#3EBBB7"/>
<path d="M17.4406 16.6005C15.9513 16.8231 14.8051 18.1105 14.8051 19.6611C14.8051 20.7496 15.3706 21.7081 16.2227 22.2601C16.722 22.5842 17.3047 22.7565 17.9 22.756C18.0055 22.756 18.1096 22.7507 18.2122 22.7404C19.5316 22.6076 20.6083 21.6424 20.9099 20.3797C20.9649 20.149 20.9949 19.9085 20.9949 19.6611C20.9953 19.2084 20.8957 18.7612 20.7034 18.3514C20.6051 18.1429 20.4839 17.946 20.342 17.7645C19.7756 17.0362 18.8922 16.5662 17.9 16.5662C17.7439 16.5662 17.5905 16.5779 17.4406 16.6005Z" fill="#3EBBB7"/>
<path d="M27.7223 15.9807L24.4876 9.38199L21.285 15.8577C22.0153 16.5087 22.5581 17.3657 22.8199 18.3372C23.9865 18.2942 25.1542 18.2942 26.3208 18.3372C26.5641 17.4385 27.0488 16.6236 27.7223 15.9807Z" fill="#3EBBB7"/>
<path d="M35.0393 0H13.927L18.8967 14.6649C19.12 14.7092 19.3401 14.7685 19.5554 14.8424L24.4954 4.85374L29.4213 14.9024C29.6273 14.8235 29.8382 14.7582 30.0528 14.7068L35.0393 0Z" fill="#3EBBB7"/>
<path d="M34.2036 20.554C34.2889 20.2711 34.3352 19.9714 34.3352 19.6612C34.3352 18.0522 33.1012 16.7267 31.5299 16.5804C31.4344 16.5713 31.338 16.5663 31.2403 16.5663C30.1747 16.5663 29.2349 17.1085 28.6779 17.9306C28.5628 18.0994 28.4648 18.2791 28.3851 18.4672C28.2308 18.8347 28.1454 19.2382 28.1454 19.6612C28.1454 19.9322 28.181 20.2019 28.2514 20.4636C28.6059 21.7823 29.8113 22.7561 31.2403 22.7561C31.8738 22.7567 32.4921 22.5617 33.0107 22.1978C33.5812 21.7989 34.0013 21.2201 34.2036 20.554Z" fill="#3EBBB7"/>
</svg>
