<svg width="46" height="50" viewBox="0 0 46 50" fill="none" xmlns="http://www.w3.org/2000/svg">
<path d="M44.3562 24.625C44.3537 23.1909 43.8765 21.798 42.9992 20.6636C42.1218 19.5292 40.8936 18.7172 39.5062 18.3542L45.7312 0H14.8833L21.125 18.4125C19.7775 18.8053 18.5936 19.6242 17.7508 20.7465C16.908 21.8687 16.4516 23.234 16.45 24.6375C16.45 26.8104 17.5333 28.7354 19.1854 29.9208C18.5208 30.8578 17.7643 31.726 16.9271 32.5125C15.387 33.9792 13.5849 35.1432 11.6146 35.9437C9.87706 34.7708 9.12497 32.7021 9.80414 30.8479C11.2822 30.3888 12.5471 29.4158 13.3699 28.1049C14.1927 26.7941 14.5191 25.232 14.29 23.7013C14.0609 22.1706 13.2915 20.7726 12.1209 19.76C10.9503 18.7475 9.456 18.1875 7.90831 18.1812C6.18895 18.1835 4.54064 18.8674 3.32486 20.0832C2.10909 21.299 1.4251 22.9473 1.42289 24.6667C1.42289 26.4333 2.14581 28.0542 3.30414 29.2125C3.20414 29.4146 3.10206 29.6187 2.99998 29.8354C2.03123 31.8333 0.931225 34.0917 0.510392 36.625C-0.329191 41.6917 1.04581 45.7583 4.36247 48.0604C6.15754 49.3264 8.30129 50.0041 10.4979 50C14.3041 50 18.1687 48.0896 21.9041 46.2354C24.5687 44.9187 27.3187 43.5437 30.025 42.8771C31.025 42.6312 32.0666 42.4875 33.1666 42.3271C35.3958 42.0083 37.6979 41.6771 39.7666 40.4729C40.9481 39.7959 41.9671 38.8687 42.7524 37.7563C43.5376 36.6439 44.0701 35.3732 44.3125 34.0333C44.675 31.9625 44.3125 29.8792 43.3875 28.0542C44.0083 27.0542 44.3562 25.8833 44.3562 24.6229V24.625ZM41.5333 24.625C41.5333 26.6354 39.8979 28.2708 37.8875 28.2708C37.1304 28.2687 36.3927 28.0314 35.7764 27.5916C35.1601 27.1519 34.6957 26.5315 34.4475 25.8163C34.1992 25.1011 34.1794 24.3264 34.3907 23.5994C34.6021 22.8724 35.0341 22.229 35.6271 21.7583L35.6416 21.7437C35.7583 21.6562 35.8875 21.5688 36.0166 21.4833C36.0166 21.4833 36.0333 21.4833 36.0333 21.4688C36.0916 21.4396 36.1479 21.3958 36.2062 21.3646C36.2208 21.3646 36.2354 21.3521 36.25 21.3521C36.3083 21.3229 36.3812 21.2937 36.4521 21.2646C36.525 21.2354 36.5979 21.2083 36.6562 21.1792C36.6708 21.1792 36.6833 21.1646 36.6979 21.1646C36.7562 21.15 36.8146 21.1208 36.8729 21.1062C36.8875 21.1062 36.9146 21.0917 36.9312 21.0917C37.0021 21.0771 37.0604 21.0625 37.1333 21.05H37.1479L37.3646 21.0042C37.3791 21.0042 37.4062 21.0042 37.4229 20.9896C37.4812 20.9896 37.5375 20.975 37.5958 20.975H37.6687C37.7416 20.975 37.8146 20.9604 37.9 20.9604H38.0875C38.1458 20.9604 38.1916 20.9604 38.2479 20.975H38.2771C38.3916 20.9896 38.5083 21.0042 38.625 21.0333C39.4469 21.2094 40.1837 21.6616 40.7128 22.3147C41.2419 22.9678 41.5315 23.7824 41.5333 24.6229V24.625ZM18.9229 2.89583H41.6937L36.4666 18.3125C36.25 18.3542 36.0333 18.4271 35.8166 18.5L30.3166 7.28125L24.8 18.4271C24.5833 18.3563 24.35 18.3125 24.1187 18.2687L18.9229 2.89375V2.89583ZM29.2729 23.3646C29.0066 22.0283 28.3222 20.8113 27.3187 19.8896L30.3146 13.8396L33.3396 20.0208C32.4437 20.9167 31.7916 22.0625 31.5312 23.3646H29.2708H29.2729ZM22.0208 21.0771C22.0916 21.0625 22.15 21.0479 22.2229 21.0354H22.2646C22.325 21.0187 22.3812 21.0187 22.4396 21.0042H22.4979C22.5562 21.0042 22.6 20.9896 22.6562 20.9896H23.2208C23.2791 20.9896 23.3229 21.0042 23.3666 21.0042C23.3958 21.0042 23.4083 21.0042 23.4396 21.0187C23.4958 21.0333 23.5396 21.0333 23.5979 21.0479C23.6125 21.0479 23.6271 21.0479 23.6562 21.0625L23.8583 21.1042H23.8729C23.9312 21.1208 23.9896 21.1354 24.0458 21.1646C24.0604 21.1646 24.075 21.1792 24.1041 21.1792C24.1479 21.1938 24.2062 21.2083 24.25 21.2354C24.2646 21.2354 24.2791 21.25 24.2916 21.25C24.35 21.2792 24.4083 21.2937 24.4666 21.3229H24.4812C24.5481 21.3482 24.6112 21.3825 24.6687 21.425H24.6833C24.7416 21.4542 24.8 21.4958 24.8583 21.525C24.8729 21.525 24.8729 21.5396 24.8854 21.5396C24.9437 21.5687 24.9896 21.6125 25.0458 21.6417L25.0604 21.6562C25.2333 21.7854 25.3937 21.9312 25.5521 22.075L25.5666 22.0896C26.2118 22.7691 26.57 23.6713 26.5666 24.6083C26.5347 25.5545 26.1363 26.4512 25.4557 27.1092C24.7751 27.7672 23.8654 28.135 22.9187 28.135C21.972 28.135 21.0624 27.7672 20.3818 27.1092C19.7011 26.4512 19.3028 25.5545 19.2708 24.6083C19.2685 23.797 19.5382 23.0084 20.0366 22.3683C20.5351 21.7282 21.2337 21.2736 22.0208 21.0771ZM7.77497 20.975C9.78747 20.975 11.4229 22.6125 11.4229 24.6229C11.4229 26.6333 9.78747 28.2708 7.77706 28.2708C5.76664 28.2708 4.12706 26.6354 4.12706 24.625C4.12706 22.6146 5.76456 20.975 7.77497 20.975ZM41.4479 33.5271C41.2832 34.4532 40.9163 35.3317 40.3733 36.0998C39.8302 36.8679 39.1245 37.5067 38.3062 37.9708C36.7271 38.8833 34.7875 39.1729 32.7458 39.4625C31.5978 39.6096 30.4576 39.8119 29.3291 40.0687C26.3187 40.8083 23.425 42.2562 20.6166 43.6458C17.025 45.425 13.6375 47.1042 10.4979 47.1042C8.88794 47.1142 7.31646 46.6122 6.01039 45.6708C2.82498 43.4708 2.98331 39.3458 3.36039 37.0875C3.70831 34.9729 4.67706 32.9917 5.60414 31.0938C5.66248 30.9792 5.70622 30.8771 5.76456 30.7604C6.08122 30.8771 6.41456 30.9646 6.76248 31.0229C6.21248 34.0917 7.77497 37.2604 10.8166 38.825L11.3666 39.1146L11.9583 38.8979C14.4916 38 16.8375 36.5375 18.9083 34.5833C20.0519 33.517 21.0626 32.3167 21.9187 31.0083C22.2521 31.0646 22.5854 31.0792 22.9187 31.0792C24.3518 31.0758 25.7436 30.5985 26.8771 29.7217C28.0106 28.8448 28.8222 27.6176 29.1854 26.2312H31.6166C31.9775 27.6197 32.789 28.849 33.9239 29.7264C35.0589 30.6038 36.4529 31.0796 37.8875 31.0792C39.0875 31.0792 40.2 30.7458 41.1583 30.1833C41.5333 31.2667 41.65 32.3979 41.4479 33.5271Z" fill="#3EBBB7"/>
</svg>
