<svg width="24" height="50" viewBox="0 0 24 50" fill="none" xmlns="http://www.w3.org/2000/svg">
<path fill-rule="evenodd" clip-rule="evenodd" d="M11.7414 0.0291758C12.1106 0.554369 13.9176 3.08305 16.0161 5.57284C34.0282 28.5449 13.1793 44.0479 13.1598 44.0284L12.985 44.1646C12.8295 46.5765 12.4409 50 12.4409 50H10.8865C10.8865 50 10.4979 46.557 10.3424 44.1646L10.1676 44.0479C10.1676 44.0479 -10.6813 28.5449 7.3307 5.57284C9.4292 3.08305 11.2362 0.554369 11.6054 0.0291758C11.6443 -0.00972525 11.7026 -0.00972525 11.7414 0.0291758ZM10.4784 42.4918C10.7311 42.9002 11.6637 43.6977 11.6637 43.6977C11.6637 43.6977 12.5964 42.9002 12.849 42.4918V42.4527L11.722 17.4382C11.722 17.3604 11.6054 17.3604 11.6054 17.4382L10.4784 42.4527V42.4918Z" fill="#3EBBB7"/>
</svg>
