<svg width="45" height="51" viewBox="0 0 45 51" fill="none" xmlns="http://www.w3.org/2000/svg">
<path d="M22.4175 0.854248C21.7525 0.854248 21.0628 1.02666 20.4963 1.34686L2.17118 11.938C0.988916 12.6276 0.25 13.9084 0.25 15.2877V36.4208C0.25 37.8001 0.988916 39.0808 2.17118 39.7705L6.97414 42.5291C9.31404 43.6621 10.1022 43.6868 11.186 43.6868C14.6342 43.6868 16.6293 41.5932 16.6293 37.9478V17.0858C16.6293 16.7902 16.383 16.5439 16.0874 16.5439H13.7968C13.4766 16.5439 13.2303 16.7902 13.2303 17.0858V37.9478C13.2303 39.5735 11.5554 41.1744 8.87069 39.8198L3.82143 36.938C3.64901 36.8148 3.55049 36.6178 3.55049 36.4208V15.2877C3.55049 15.0661 3.64901 14.869 3.82143 14.7705L22.1466 4.204C22.2943 4.10548 22.5406 4.10548 22.6884 4.204L41.0135 14.7705C41.186 14.869 41.2845 15.0661 41.2845 15.2877V36.4208C41.2845 36.6178 41.186 36.8148 41.0135 36.938L22.6884 47.5045C22.5406 47.603 22.2943 47.603 22.1219 47.5045L17.4914 44.6966C17.2943 44.6227 17.0973 44.5981 16.9741 44.672C15.6687 45.4109 15.4224 45.5587 14.2155 45.9281C13.92 46.0267 13.452 46.1991 14.3879 46.7163L20.4963 50.337C21.0874 50.6818 21.7278 50.8542 22.4175 50.8542C23.1071 50.8542 23.7475 50.6818 24.3387 50.337L42.6638 39.7705C43.8461 39.0808 44.585 37.8001 44.585 36.4208V15.2877C44.585 13.9084 43.8461 12.6276 42.6638 11.938L24.3387 1.34686C23.7722 1.02666 23.1071 0.854248 22.4175 0.854248ZM27.3436 16.002C22.1219 16.002 18.9938 18.1941 18.9938 21.8887C18.9938 25.8542 22.0973 27.0119 27.1219 27.5045C33.1071 28.0956 33.5751 28.9823 33.5751 30.1646C33.5751 32.2089 31.9249 33.071 28.0825 33.071C23.2057 33.071 22.1712 31.8641 21.8017 29.4503C21.7525 29.204 21.5308 29.007 21.2599 29.007H18.8953C18.5998 29.007 18.3781 29.2286 18.3781 29.5488C18.3781 32.603 20.053 36.2976 28.0825 36.2976C33.8707 36.2976 37.1958 34.007 37.1958 30.0168C37.1958 26.0513 34.5357 25.0168 28.8953 24.2533C23.2057 23.5143 22.6392 23.1203 22.6392 21.7902C22.6392 20.6818 23.1318 19.204 27.3436 19.204C31.0382 19.204 32.4914 20.0168 33.0579 22.5538C33.1071 22.8001 33.3288 22.9725 33.5751 22.9725H35.9643C36.0874 22.9725 36.2352 22.9232 36.3337 22.8001C36.4323 22.7015 36.5062 22.5538 36.4569 22.406C36.1121 18.0217 33.2057 16.002 27.3436 16.002Z" fill="#3EBBB7"/>
</svg>
