<svg width="40" height="38" viewBox="0 0 40 38" fill="none" xmlns="http://www.w3.org/2000/svg">
<path d="M27.7158 26.5208C29.1919 26.368 30.3117 25.0955 30.2608 23.5683C30.21 22.0412 28.9373 20.8195 27.4103 20.8195H27.3086C25.7305 20.8705 24.5089 22.1939 24.5598 23.7719C24.6108 24.5355 24.9161 25.1972 25.3742 25.6553C23.6436 29.0659 20.9967 31.5602 17.0264 33.6472C14.3286 35.0725 11.5291 35.5816 8.72953 35.2253C6.4389 34.9198 4.65734 33.9019 3.53734 32.2219C1.90859 29.7277 1.75594 27.0297 3.13031 24.3319C4.0975 22.3975 5.62437 20.9722 6.59156 20.2595C6.38797 19.5978 6.0825 18.478 5.92984 17.6636C-1.45094 23.0084 -0.687346 30.2367 1.55234 33.6472C3.23203 36.1925 6.6425 37.7705 10.4092 37.7705C11.4272 37.7705 12.4452 37.6686 13.4633 37.4142C19.9787 36.1416 24.9162 32.2728 27.7158 26.5208ZM36.6745 20.2087C32.8059 15.6783 27.105 13.1841 20.5895 13.1841H19.7752C19.317 12.2678 18.3498 11.6569 17.2809 11.6569H17.1791C15.6012 11.7078 14.3797 13.0312 14.4305 14.6094C14.4814 16.1364 15.7539 17.3581 17.2809 17.3581H17.3827C18.5025 17.3072 19.4697 16.5945 19.8769 15.6273H20.7931C24.6617 15.6273 28.3266 16.7472 31.6353 18.9361C34.1803 20.6159 36.0128 22.8048 37.0308 25.4517C37.8961 27.5897 37.8451 29.6767 36.9289 31.4584C35.5037 34.1562 33.1114 35.6325 29.9555 35.6325C27.9194 35.6325 25.9852 35.0216 24.967 34.5634C24.4072 35.0725 23.3891 35.8869 22.6764 36.3961C24.8653 37.4141 27.105 37.9741 29.2428 37.9741C34.1294 37.9741 37.7434 35.2761 39.1178 32.5783C40.5939 29.6258 40.492 24.5355 36.6745 20.2087ZM10.8164 27.3859C10.8673 28.9131 12.1398 30.1347 13.6669 30.1347H13.7687C15.3467 30.0839 16.5683 28.7603 16.5173 27.1823C16.4666 25.6552 15.1939 24.4336 13.6669 24.4336H13.5652C13.4633 24.4336 13.3105 24.4336 13.2089 24.4844C11.1219 21.023 10.2566 17.2562 10.562 13.1839C10.7655 10.1297 11.7836 7.48266 13.5652 5.29375C15.0412 3.41031 17.8917 2.49406 19.8261 2.44328C25.2216 2.34141 27.512 9.06062 27.6648 11.7586C28.3266 11.9112 29.4464 12.2677 30.21 12.5222C29.5991 4.27594 24.5089 0 19.6225 0C15.0412 0 10.8164 3.30875 9.13656 8.19547C6.79515 14.7111 8.32218 20.9722 11.1727 25.9098C10.9183 26.2661 10.7655 26.8261 10.8164 27.3861V27.3859Z" fill="#3EBBB7"/>
</svg>
