<svg width="34" height="40" viewBox="0 0 34 40" fill="none" xmlns="http://www.w3.org/2000/svg">
<path d="M33.4138 4.89334C32.2157 0.19436 24.4242 -1.35033 17.05 1.26936C12.6615 2.82847 7.91066 5.27546 4.49467 8.4707C0.433061 12.2696 -0.214617 15.5762 0.0523615 16.9579C0.994064 21.833 7.67407 25.0197 10.42 27.384V27.3983C9.61028 27.7969 3.68394 30.7961 2.29689 33.8623C0.833464 37.0971 2.52987 39.4184 3.6529 39.7307C7.13265 40.6989 10.7034 38.9574 12.6224 36.0952C14.4741 33.333 14.3201 29.7659 13.5153 27.9917C14.6253 27.6988 15.9196 27.5676 17.5644 27.7596C22.2056 28.3017 23.1161 31.1997 22.9421 32.4124C22.768 33.6253 21.7946 34.2922 21.469 34.4934C21.1436 34.6948 21.0441 34.7645 21.0716 34.9141C21.1111 35.1318 21.2618 35.1236 21.5392 35.0766C21.9213 35.0122 23.9764 34.0901 24.0641 31.8514C24.176 29.009 21.4521 25.8295 16.6291 25.9125C14.6428 25.9469 13.3938 26.1357 12.4917 26.4715C12.425 26.3955 12.3571 26.3199 12.2869 26.2451C9.30518 23.0639 3.79316 20.8135 4.02691 16.537C4.11191 14.9823 4.6523 10.8882 14.6184 5.92211C22.7823 1.85406 29.3178 2.97349 30.4473 5.45447C32.0606 8.99887 26.9544 15.5867 18.4762 16.537C15.2461 16.899 13.5452 15.6472 13.1221 15.181C12.6767 14.6902 12.6103 14.668 12.444 14.7601C12.1732 14.9101 12.3448 15.3435 12.444 15.6019C12.6972 16.2606 13.7359 17.4289 15.5069 18.0101C17.0648 18.5214 20.8573 18.8021 25.4438 17.0282C30.5807 15.041 34.5919 9.5135 33.4138 4.89334ZM11.5596 28.84C11.9444 30.2639 11.9023 31.5917 11.5046 32.7942C11.4605 32.9278 11.4119 33.0598 11.3591 33.1904C11.3062 33.3209 11.2491 33.4498 11.1877 33.577C10.881 34.2131 10.4696 34.8088 9.96574 35.3584C8.42839 37.0354 6.28071 37.6695 5.35974 37.1353C4.36523 36.5587 4.86339 34.1943 6.6457 32.3103C8.5631 30.2834 11.3219 28.9802 11.3219 28.9802L11.3178 28.9718C11.397 28.929 11.4777 28.885 11.5596 28.84Z" fill="#3EBBB7"/>
</svg>
