<svg width="48" height="49" viewBox="0 0 48 49" fill="none" xmlns="http://www.w3.org/2000/svg">
<path fill-rule="evenodd" clip-rule="evenodd" d="M15.3949 7.93047L1.56443 5.45836C0.546396 5.27639 -0.221815 6.36458 0.290481 7.26296L23.1742 47.3924C23.6444 48.2168 24.8347 48.2119 25.298 47.3835L47.7367 7.25909C48.24 6.35895 47.4682 5.27919 46.4536 5.46411L35.6444 7.43427L34.8752 10.1006L37.4059 9.6122C39.5308 9.20213 41.2037 11.4082 40.2336 13.3439L26.6534 40.4455L26.3489 40.9161C24.7798 43.341 21.0177 41.7985 21.6021 38.9703L23.3114 30.6971L22.695 30.8844C20.8027 31.4591 18.9838 29.8024 19.3794 27.8651L20.3202 23.2582L17.8046 23.8388C16.107 24.2303 14.5098 22.8804 14.6126 21.1417L15.3949 7.93047Z" fill="#3EBBB7"/>
<path d="M34.7274 0.192011L18.1221 3.44577C17.8491 3.49924 17.6471 3.73054 17.6306 4.00811L16.6091 21.2598C16.5851 21.6661 16.9583 21.9815 17.3549 21.89L21.978 20.8231C22.4106 20.7233 22.8014 21.1043 22.7125 21.5393L21.339 28.2653C21.2466 28.7179 21.6716 29.105 22.1136 28.9707L24.9691 28.1032C25.4118 27.9688 25.8372 28.357 25.7435 28.81L23.5607 39.375C23.4241 40.0359 24.3032 40.3962 24.6697 39.8296L24.9146 39.4512L38.4456 12.4478C38.6722 11.9957 38.2815 11.4801 37.7849 11.576L33.0261 12.4944C32.5789 12.5806 32.1984 12.1642 32.3246 11.7266L35.4306 0.959388C35.5569 0.521126 35.1751 0.104302 34.7274 0.192011Z" fill="#3EBBB7"/>
</svg>
