<svg width="37" height="40" viewBox="0 0 37 40" fill="none" xmlns="http://www.w3.org/2000/svg">
<path d="M34.9524 30.8262L18.7481 40V32.8493L28.8433 27.301L34.9524 30.8262ZM36.0541 29.8247V10.636L30.1252 14.021V26.3996L36.0541 29.8247ZM1.10165 30.8262L17.306 39.98V32.8493L7.21082 27.301L1.10165 30.8262ZM0 29.8247V10.636L5.92889 14.021V26.3996L0 29.8247ZM0.701051 9.39409L17.306 0V6.91037L6.67 12.7591L6.56986 12.7992L0.701051 9.39409ZM35.353 9.39409L18.7481 0V6.91037L29.3841 12.7792L29.4642 12.8192L35.353 9.39409ZM17.306 31.2268L7.35103 25.7386V14.9024L17.306 20.651V31.2268ZM18.7481 31.2268L28.7031 25.7586V14.9024L18.7481 20.651V31.2268ZM8.01202 13.6405L18.027 8.1322L28.0421 13.6405L18.027 19.4091L8.01202 13.6405Z" fill="#3EBBB7"/>
</svg>
